<svg class="animated" id="freepik_stories-breathing-exercise" xmlns="http://www.w3.org/2000/svg" viewBox="0 0 500 500" version="1.1" xmlns:xlink="http://www.w3.org/1999/xlink" xmlns:svgjs="http://svgjs.com/svgjs"><style>svg#freepik_stories-breathing-exercise:not(.animated) .animable {opacity: 0;}svg#freepik_stories-breathing-exercise.animated #freepik--background-complete--inject-63 {animation: 1.5s Infinite  linear floating;animation-delay: 0s;}svg#freepik_stories-breathing-exercise.animated #freepik--Picture--inject-63 {animation: 1.5s Infinite  linear floating;animation-delay: 0s;}            @keyframes floating {                0% {                    opacity: 1;                    transform: translateY(0px);                }                50% {                    transform: translateY(-10px);                }                100% {                    opacity: 1;                    transform: translateY(0px);                }            }        </style><g id="freepik--background-complete--inject-63" class="animable" style="transform-origin: 250px 255.81px;"><rect x="341.02" y="33.7" width="111.77" height="185.02" style="fill: rgb(224, 224, 224); transform-origin: 396.905px 126.21px;" id="el5w8ax4tqlbt" class="animable"></rect><rect x="337.31" y="33.7" width="111.77" height="185.02" style="fill: rgb(235, 235, 235); transform-origin: 393.195px 126.21px;" id="eludbsaaap2lo" class="animable"></rect><rect x="342.06" y="37.46" width="102.25" height="177.51" style="fill: rgb(255, 255, 255); transform-origin: 393.185px 126.215px;" id="elh9wqkdytqsg" class="animable"></rect><rect x="361.53" y="60.52" width="62.88" height="131.38" style="fill: rgb(235, 235, 235); transform-origin: 392.97px 126.21px;" id="elepi4jm1932" class="animable"></rect><path d="M361.53,145.41c-.14-12.27,10.89-24.25,23-26,5.8-.81,12,.34,17.37-1.88,9.67-4,12.74-16.81,22.47-20.62l.44,95H361.53Z" style="fill: rgb(224, 224, 224); transform-origin: 393.169px 144.41px;" id="eld3k75mii50c" class="animable"></path><rect x="207.38" y="39.97" width="74.92" height="78.1" style="fill: rgb(224, 224, 224); transform-origin: 244.84px 79.02px;" id="el64h93rb66sx" class="animable"></rect><rect x="202.31" y="39.97" width="74.92" height="78.1" style="fill: rgb(250, 250, 250); transform-origin: 239.77px 79.02px;" id="elofhcqgljwm" class="animable"></rect><path d="M277.25,118.09h-75V40h75Zm-74.92,0h74.88V40H202.33Z" style="fill: rgb(224, 224, 224); transform-origin: 239.75px 79.045px;" id="elm9v6j2916qs" class="animable"></path><rect x="212.38" y="50.47" width="54.78" height="57.1" style="fill: rgb(255, 255, 255); transform-origin: 239.77px 79.02px;" id="eliyuco7w6iy" class="animable"></rect><path d="M212.38,108a9.28,9.28,0,0,1-1.35,1.57c-.88.93-2.11,2.18-3.48,3.53s-2.65,2.57-3.58,3.43a8.57,8.57,0,0,1-1.59,1.32,9.15,9.15,0,0,1,1.35-1.57c.87-.92,2.11-2.17,3.49-3.53s2.65-2.58,3.58-3.44A9.35,9.35,0,0,1,212.38,108Z" style="fill: rgb(224, 224, 224); transform-origin: 207.38px 112.925px;" id="elhlv57uod4w" class="animable"></path><path d="M267.16,107.81a9.28,9.28,0,0,1,1.57,1.35c.92.88,2.17,2.11,3.53,3.49s2.57,2.64,3.43,3.57a8.72,8.72,0,0,1,1.31,1.59,9.36,9.36,0,0,1-1.56-1.35c-.92-.87-2.18-2.1-3.54-3.49s-2.57-2.65-3.43-3.58A8.76,8.76,0,0,1,267.16,107.81Z" style="fill: rgb(224, 224, 224); transform-origin: 272.08px 112.81px;" id="ell9aabp9ql0s" class="animable"></path><path d="M267,50.62a9.28,9.28,0,0,1,1.35-1.57c.88-.92,2.1-2.17,3.48-3.53s2.65-2.57,3.58-3.43A9.35,9.35,0,0,1,277,40.78a8.94,8.94,0,0,1-1.34,1.56c-.88.92-2.11,2.18-3.49,3.54s-2.65,2.57-3.59,3.43A8.54,8.54,0,0,1,267,50.62Z" style="fill: rgb(224, 224, 224); transform-origin: 272px 45.7px;" id="elktdj2yuyi7" class="animable"></path><path d="M212.23,50.76a8.22,8.22,0,0,1-1.57-1.35c-.93-.87-2.18-2.1-3.53-3.48s-2.57-2.65-3.43-3.58a9.32,9.32,0,0,1-1.32-1.58A8.75,8.75,0,0,1,204,42.11c.92.88,2.17,2.11,3.54,3.49s2.57,2.65,3.43,3.59A8.54,8.54,0,0,1,212.23,50.76Z" style="fill: rgb(224, 224, 224); transform-origin: 207.305px 45.765px;" id="elfxg1plwchdm" class="animable"></path><path d="M267,107.57a1.23,1.23,0,0,1,0-.28c0-.19,0-.45,0-.79,0-.72,0-1.75,0-3.08,0-2.71,0-6.65-.06-11.64,0-10-.06-24.25-.1-41.31l.21.21-54.63,0h0l.24-.24c0,21,0,40.57,0,57.1l-.21-.21,39.55.11,11.11,0,2.94,0h1a.87.87,0,0,1-.24,0l-.74,0-2.9,0-11.06,0-39.69.11h-.21v-.21c0-16.53,0-36.14,0-57.1v-.24h.24l54.63,0h.21v.21c0,17.11-.08,31.41-.11,41.44,0,5,0,8.9-.05,11.59,0,1.32,0,2.34,0,3,0,.33,0,.59,0,.78A2.06,2.06,0,0,1,267,107.57Z" style="fill: rgb(224, 224, 224); transform-origin: 239.75px 78.785px;" id="elerxxgqpxe8l" class="animable"></path><rect x="230.63" y="69.88" width="18.28" height="18.28" style="fill: rgb(235, 235, 235); transform-origin: 239.77px 79.02px;" id="el9e2p1ljwim" class="animable"></rect><path d="M329,233.54c.46.46,15.78,10.37,15.78,10.37L329,253.35v-6.81s-16.6-2-18.7-15.55c-1.69-11-1-14.17-1-14.17H315S312.79,240,329,240.5Z" style="fill: rgb(224, 224, 224); transform-origin: 326.97px 235.085px;" id="el9vnc5a7upw" class="animable"></path><path d="M173.75,234.35c-.46.46-15.78,10.37-15.78,10.37l15.78,9.44v-6.81s16.6-2,18.69-15.55c1.7-11,1-14.17,1-14.17h-5.8s2.22,23.16-13.93,23.68Z" style="fill: rgb(224, 224, 224); transform-origin: 175.776px 235.895px;" id="el9iz56z2vcl" class="animable"></path><polygon points="38.97 477.92 69.14 423.69 422.21 423.69 461.03 477.92 38.97 477.92" style="fill: rgb(224, 224, 224); transform-origin: 250px 450.805px;" id="elefs7gk3f6k5" class="animable"></polygon><path d="M451.18,464.16c0,.14-89.64.26-200.19.26s-200.21-.12-200.21-.26,89.62-.26,200.21-.26S451.18,464,451.18,464.16Z" style="fill: rgb(250, 250, 250); transform-origin: 250.98px 464.16px;" id="elxsloib7vc1" class="animable"></path><path d="M439.08,447.82c0,.14-85.83.26-191.67.26S55.72,448,55.72,447.82s85.8-.26,191.69-.26S439.08,447.67,439.08,447.82Z" style="fill: rgb(250, 250, 250); transform-origin: 247.4px 447.82px;" id="eljm9il88m4lh" class="animable"></path><path d="M429.65,435.1c0,.14-82.19.26-183.55.26s-183.58-.12-183.58-.26,82.17-.26,183.58-.26S429.65,435,429.65,435.1Z" style="fill: rgb(250, 250, 250); transform-origin: 246.085px 435.1px;" id="eldw9kvf14bji" class="animable"></path></g><g id="freepik--Floor--inject-63" class="animable" style="transform-origin: 250px 419.285px;"><path d="M470.67,419.3c0,.15-98.8.27-220.66.27s-220.68-.12-220.68-.27S128.11,419,250,419,470.67,419.16,470.67,419.3Z" style="fill: rgb(38, 50, 56); transform-origin: 250px 419.285px;" id="el7f3ce1wwkf3" class="animable"></path></g><g id="freepik--Plant--inject-63" class="animable" style="transform-origin: 87.295px 308.655px;"><path d="M131.77,203.16C120.5,209,111.87,219,105.66,230.1s-10.21,23.19-14.18,35.24L88,327.48c13.11-22.29,23.63-48.5,26.47-74.21l-8.72-.77c5.84-.9,10.75-5.13,13.88-10.16s4.73-10.81,6.29-16.51l-10.64,1.58A39.4,39.4,0,0,0,131.77,203.16Z" style="fill: rgb(69, 90, 100); transform-origin: 109.885px 265.32px;" id="el6d58g0b6n6y" class="animable"></path><g id="elr4q5ofts2i"><g style="opacity: 0.3; transform-origin: 109.885px 265.32px;" class="animable"><path d="M131.77,203.16C120.5,209,111.87,219,105.66,230.1s-10.21,23.19-14.18,35.24L88,327.48c13.11-22.29,23.63-48.5,26.47-74.21l-8.72-.77c5.84-.9,10.75-5.13,13.88-10.16s4.73-10.81,6.29-16.51l-10.64,1.58A39.4,39.4,0,0,0,131.77,203.16Z" id="eleurgs4mtyvo" class="animable" style="transform-origin: 109.885px 265.32px;"></path></g></g><path d="M86.07,342S57.63,308,58,275.49H69.45S57,267.29,58,262.69s1.31-22,1.31-22l10.51,2.63s-7.88-3.94-8.87-10.18S63.21,198,63.21,198,76,211.48,80,225.27s14.28,29.87,11.25,71.89S86.07,342,86.07,342Z" style="fill: rgb(69, 90, 100); transform-origin: 74.8717px 270px;" id="elepv7vfwxs95" class="animable"></path><path d="M100.49,345.25s30.82-20.53,37.67-46.73L128.92,296s11.83-3.87,12-7.78,3.75-18,3.75-18l-9-.19s7.2-1.44,9.36-6.24,5.83-28.75,5.83-28.75-13.23,8-19.42,18.25-18,20.89-24.77,55.34S100.49,345.25,100.49,345.25Z" style="fill: rgb(69, 90, 100); transform-origin: 125.668px 290.145px;" id="el9av3qdkfowm" class="animable"></path><path d="M71,227.7a2.24,2.24,0,0,1,.1.35c.06.27.15.61.25,1,.21,1,.51,2.31.9,4s.85,3.91,1.35,6.41,1.1,5.35,1.67,8.51c1.22,6.32,2.5,13.86,3.83,22.26s2.56,17.66,3.7,27.4,2,19.06,2.65,27.53,1.1,16.12,1.35,22.55c.16,3.21.24,6.11.32,8.67s.13,4.75.14,6.54,0,3.16.05,4.14v1.08a2.71,2.71,0,0,1,0,.37,2.24,2.24,0,0,1,0-.37c0-.27,0-.62,0-1.08L87,363c-.05-1.8-.12-4-.24-6.54s-.2-5.46-.39-8.67c-.3-6.41-.81-14.05-1.46-22.52s-1.57-17.77-2.69-27.51-2.4-19-3.66-27.39-2.54-15.94-3.71-22.26c-.55-3.16-1.12-6-1.6-8.52s-.89-4.67-1.26-6.43-.61-3.1-.8-4.06l-.2-1.05A2,2,0,0,1,71,227.7Z" style="fill: rgb(38, 50, 56); transform-origin: 79.1514px 298.105px;" id="el7aag7t3eaxq" class="animable"></path><path d="M82.13,362.89S56.1,333.35,48,315.5l6.1-2.61c-4.42.73-9-1.17-12.39-4.06s-5.94-6.68-8.41-10.42l8-1.36a29.93,29.93,0,0,1-17.57-13.6c9.49,1.56,18.07,6.77,25.14,13.28a124,124,0,0,1,15.23,17.65,60.65,60.65,0,0,1,5.92,9.72C74.45,333.15,82.14,352,82.13,362.89Z" style="fill: rgb(69, 90, 100); transform-origin: 52.93px 323.17px;" id="el1bayu9r5g4y" class="animable"></path><path d="M138.57,252.27l-.12.31c-.11.21-.24.5-.41.85-.37.78-.9,1.88-1.58,3.28-1.4,2.84-3.37,7-5.77,12.08s-5.16,11.25-8.13,18.1-6.07,14.46-9.19,22.49-5.89,15.78-8.33,22.84-4.5,13.46-6.17,18.86-3,9.78-3.86,12.82c-.44,1.49-.78,2.66-1,3.49-.11.37-.21.67-.28.9a1.43,1.43,0,0,1-.11.31,1.24,1.24,0,0,1,.06-.32l.23-.92c.23-.84.54-2,.94-3.52.81-3,2.07-7.45,3.7-12.86s3.67-11.83,6.06-18.92,5.2-14.81,8.3-22.86,6.27-15.64,9.24-22.5,5.8-13,8.24-18.07,4.47-9.2,5.92-12l1.67-3.23.45-.84A1.28,1.28,0,0,1,138.57,252.27Z" style="fill: rgb(38, 50, 56); transform-origin: 116.095px 310.435px;" id="elddtqdm08aa6" class="animable"></path><path d="M84.34,375.54a2.21,2.21,0,0,1-.13-.54c-.06-.42-.15-.93-.25-1.57s-.23-1.51-.41-2.48-.34-2.06-.6-3.26c-.47-2.42-1.14-5.28-2-8.42s-2-6.54-3.28-10.06-2.78-6.78-4.19-9.71-2.82-5.51-4.07-7.63c-.59-1.08-1.2-2-1.7-2.85s-1-1.55-1.33-2.13-.62-1-.85-1.35a2.83,2.83,0,0,1-.27-.48s.14.13.36.43l.93,1.29c.4.56.88,1.25,1.4,2.08s1.16,1.75,1.78,2.82c1.29,2.11,2.72,4.68,4.18,7.6s2.91,6.22,4.25,9.75,2.39,7,3.25,10.12,1.47,6,1.89,8.47c.24,1.21.38,2.32.53,3.29s.25,1.81.32,2.49.12,1.17.16,1.59A2.85,2.85,0,0,1,84.34,375.54Z" style="fill: rgb(38, 50, 56); transform-origin: 74.8013px 350.3px;" id="el3kveu6kdz4p" class="animable"></path><rect x="61.71" y="368.6" width="56.97" height="11.62" style="fill: rgb(255, 150, 91); transform-origin: 90.195px 374.41px;" id="elfvy62rr77r6" class="animable"></rect><polygon points="67.14 380.22 73.3 419.31 107.73 419.31 113.47 380.22 67.14 380.22" style="fill: rgb(255, 150, 91); transform-origin: 90.305px 399.765px;" id="elgan2xi5t1pa" class="animable"></polygon><path d="M115.19,380.22c0,.14-10.78.26-24.07.26s-24.07-.12-24.07-.26S77.82,380,91.12,380,115.19,380.07,115.19,380.22Z" style="fill: rgb(38, 50, 56); transform-origin: 91.12px 380.24px;" id="el3elt1cmip05" class="animable"></path></g><g id="freepik--Table--inject-63" class="animable" style="transform-origin: 398.745px 283.532px;"><path d="M365.77,163.82a5.11,5.11,0,0,0-4.87,2.08,8.19,8.19,0,0,0-1.17,4.94,7.84,7.84,0,0,0,1.35,4.62,8.56,8.56,0,0,0,5.6,3,12.56,12.56,0,0,0,6.05-.76c.48-2,0-4.51-.47-6.67a10.77,10.77,0,0,0-2-4.5A7.38,7.38,0,0,0,365.77,163.82Z" style="fill: rgb(69, 90, 100); transform-origin: 366.316px 171.16px;" id="el6z0rsn7y9dw" class="animable"></path><path d="M410,159.14a3.7,3.7,0,0,1-.19.69c-.16.5-.38,1.15-.65,2-.58,1.69-1.38,4.15-2.32,7.2s-2,6.71-3,10.8-2.06,8.62-3,13.4-1.59,9.38-2.13,13.57-.88,8-1.11,11.16-.39,5.77-.47,7.55c0,.85-.08,1.54-.11,2.06a3.56,3.56,0,0,1-.07.71,3.27,3.27,0,0,1,0-.72c0-.52,0-1.2,0-2.05,0-1.79.11-4.38.3-7.57s.52-7,1-11.2,1.19-8.8,2.09-13.6,2-9.34,3-13.43,2.15-7.75,3.14-10.79,1.84-5.49,2.48-7.16c.31-.8.55-1.44.74-1.92A5.13,5.13,0,0,1,410,159.14Z" style="fill: rgb(38, 50, 56); transform-origin: 403.465px 193.71px;" id="elodqlx48o34k" class="animable"></path><path d="M370,173.38a2.8,2.8,0,0,1,.39.56l1,1.64c.89,1.43,2.1,3.55,3.53,6.2s3,5.86,4.69,9.48,3.31,7.67,4.88,12,2.85,8.51,3.92,12.35,1.86,7.33,2.45,10.29,1,5.35,1.25,7l.27,1.92a5.47,5.47,0,0,1,.06.68,3,3,0,0,1-.17-.66c-.09-.49-.21-1.12-.36-1.9-.29-1.66-.77-4-1.41-7S389,219.55,388,215.73s-2.39-8-3.94-12.3-3.23-8.35-4.83-12-3.19-6.84-4.58-9.5-2.54-4.8-3.37-6.26l-.94-1.7A4,4,0,0,1,370,173.38Z" style="fill: rgb(38, 50, 56); transform-origin: 381.22px 204.44px;" id="el8zyvvr8m3nl" class="animable"></path><rect x="383.28" y="222.54" width="23.92" height="2.25" rx="1.09" style="fill: rgb(255, 150, 91); transform-origin: 395.24px 223.665px;" id="elytsse1rqrf8" class="animable"></rect><path d="M415,247.79c-.79-8.75-7.69-9.95-9-10.88a3.7,3.7,0,0,1-.76-.72,5.85,5.85,0,0,1-1.23-3.67v-8.85H386.68v8.85a5.79,5.79,0,0,1-1.23,3.67,3.46,3.46,0,0,1-.76.72c-1.32.93-8.22,2.13-9,10.88s-3.71,28.65,1.46,35c4.77,5.87,9.42,6.22,17.18,6.24h2.06c7.75,0,12.41-.37,17.17-6.24C418.72,276.44,415.8,256.55,415,247.79Z" style="fill: rgb(255, 150, 91); transform-origin: 395.352px 256.35px;" id="elpekn75vkjeg" class="animable"></path><path d="M406.64,224.86c0,.14-5.1.26-11.4.26s-11.41-.12-11.41-.26,5.11-.26,11.41-.26S406.64,224.71,406.64,224.86Z" style="fill: rgb(38, 50, 56); transform-origin: 395.235px 224.86px;" id="el15g51m8ygkn" class="animable"></path><path d="M420.52,152.41a6.14,6.14,0,0,0-5-3.54,12.49,12.49,0,0,0-6.24,1.08,9.44,9.44,0,0,0-4.51,3.21,7.12,7.12,0,0,0-.45,6.42,12.92,12.92,0,0,0,4.12,5.18c2.54-.43,5.11-2,7.31-3.31a11.79,11.79,0,0,0,4.05-3.73A6.05,6.05,0,0,0,420.52,152.41Z" style="fill: rgb(69, 90, 100); transform-origin: 412.298px 156.793px;" id="el3ltiw2gixdv" class="animable"></path><path d="M364.68,195.88a4.86,4.86,0,0,1,0-4.8,9.78,9.78,0,0,1,3.5-3.53,7.42,7.42,0,0,1,4.1-1.45,5.57,5.57,0,0,1,4.34,2.61,10.09,10.09,0,0,1,1.48,5,17.68,17.68,0,0,1-5.43,3.21,9.42,9.42,0,0,1-4.23.93A4.79,4.79,0,0,1,364.68,195.88Z" style="fill: rgb(69, 90, 100); transform-origin: 371.073px 191.976px;" id="elvxy1p4jowh" class="animable"></path><path d="M388.2,185a4.82,4.82,0,0,1,0-4.79,9.74,9.74,0,0,1,3.51-3.53,7.4,7.4,0,0,1,4.1-1.46,5.59,5.59,0,0,1,4.33,2.61,10.09,10.09,0,0,1,1.48,5,17.52,17.52,0,0,1-5.42,3.21,9.22,9.22,0,0,1-4.23.93A4.75,4.75,0,0,1,388.2,185Z" style="fill: rgb(69, 90, 100); transform-origin: 394.591px 181.096px;" id="elqf8rb6b5oe" class="animable"></path><path d="M419.27,183.34a4.88,4.88,0,0,0,.68-4.81,9.92,9.92,0,0,0-3.05-4,7.51,7.51,0,0,0-3.92-2,5.68,5.68,0,0,0-4.71,2,10.22,10.22,0,0,0-2.15,4.81,17.78,17.78,0,0,0,5,4,9.39,9.39,0,0,0,4.12,1.5A4.82,4.82,0,0,0,419.27,183.34Z" style="fill: rgb(69, 90, 100); transform-origin: 413.21px 178.692px;" id="el8yxwj7m83ec" class="animable"></path><path d="M386.82,171.12a4.5,4.5,0,0,0-2.93-3.7,5.83,5.83,0,0,0-4.15.68,6.93,6.93,0,0,0-3.2,2.85,9.94,9.94,0,0,0-.84,6.19,13,13,0,0,0,2.24,5.24c1.68-.27,3.49-1.62,5-2.79a10.08,10.08,0,0,0,2.95-3.37A8.44,8.44,0,0,0,386.82,171.12Z" style="fill: rgb(69, 90, 100); transform-origin: 381.212px 174.838px;" id="ellwr3kf3ewhk" class="animable"></path><path d="M397.28,158.74a5.08,5.08,0,0,0-4.87,2.07,8.19,8.19,0,0,0-1.17,4.94,7.82,7.82,0,0,0,1.35,4.62,8.52,8.52,0,0,0,5.61,3,12.59,12.59,0,0,0,6.05-.76c.47-2,0-4.51-.48-6.66a10.8,10.8,0,0,0-2-4.51A7.29,7.29,0,0,0,397.28,158.74Z" style="fill: rgb(69, 90, 100); transform-origin: 397.828px 166.073px;" id="elpbocmw2pql" class="animable"></path><path d="M378.5,174.15a16.83,16.83,0,0,1-.14,2.58,50.13,50.13,0,0,0-.1,6.2,41.58,41.58,0,0,0,.77,6.15,20.39,20.39,0,0,1,.5,2.53,9.38,9.38,0,0,1-.86-2.45,30.23,30.23,0,0,1-.93-6.2,35.59,35.59,0,0,1,.25-6.26A10,10,0,0,1,378.5,174.15Z" style="fill: rgb(38, 50, 56); transform-origin: 378.614px 182.88px;" id="elbcct063mfqd" class="animable"></path><path d="M383.22,200.22a42.51,42.51,0,0,0-2.78-3.76,15.75,15.75,0,0,0-2.45-2.17c-.69-.48-1.18-.66-1.16-.73s.58,0,1.35.42a10.41,10.41,0,0,1,2.65,2.13A8.93,8.93,0,0,1,383.22,200.22Z" style="fill: rgb(38, 50, 56); transform-origin: 380.025px 196.878px;" id="eltsjklzm7y" class="animable"></path><path d="M401.12,182.33a10.57,10.57,0,0,1,.41,7.21c-.16,0,0-1.63-.09-3.61S401,182.38,401.12,182.33Z" style="fill: rgb(38, 50, 56); transform-origin: 401.536px 185.935px;" id="elnf0x3qtcs1" class="animable"></path><path d="M407.26,177.67a17.07,17.07,0,0,1-2.19,3.61,17.32,17.32,0,0,1-2.62,3.31,16.79,16.79,0,0,1,2.19-3.61A17.79,17.79,0,0,1,407.26,177.67Z" style="fill: rgb(38, 50, 56); transform-origin: 404.855px 181.13px;" id="el98slp2p6bwu" class="animable"></path><path d="M404,177.3a9.7,9.7,0,0,1-.11-3.12,9.29,9.29,0,0,1,.42-3.09,9.7,9.7,0,0,1,.11,3.12A9.36,9.36,0,0,1,404,177.3Z" style="fill: rgb(38, 50, 56); transform-origin: 404.155px 174.195px;" id="elm06lnikylmk" class="animable"></path><path d="M377.48,263.21a16.76,16.76,0,0,1-.34-3.28,79.61,79.61,0,0,1,0-8c.08-1.55.15-3,.35-4.39a8.67,8.67,0,0,1,1.18-3.44,5.09,5.09,0,0,1,1.75-1.72c.51-.29.83-.34.84-.31a6.07,6.07,0,0,0-2.28,2.22,8.84,8.84,0,0,0-1,3.32c-.17,1.32-.23,2.8-.31,4.35-.14,3.09-.15,5.9-.13,7.93A27.87,27.87,0,0,1,377.48,263.21Z" style="fill: rgb(38, 50, 56); transform-origin: 379.15px 252.636px;" id="eli0s17m8szk8" class="animable"></path><path d="M353.65,418.24a3.13,3.13,0,0,1-.9-.14,3,3,0,0,1-2.15-2.88V380h.78v35.19a2.23,2.23,0,0,0,4.1,1.21l23.89-36.61.66.43-23.89,36.61A3,3,0,0,1,353.65,418.24Z" style="fill: rgb(38, 50, 56); transform-origin: 365.315px 399.015px;" id="eliu40c1s5e2f" class="animable"></path><path d="M448.53,418.24a3,3,0,0,1-2.49-1.38l-23.89-36.61.66-.43,23.89,36.61a2.22,2.22,0,0,0,4.09-1.21V380h.79v35.19a3,3,0,0,1-2.16,2.88A3,3,0,0,1,448.53,418.24Z" style="fill: rgb(38, 50, 56); transform-origin: 436.865px 399.03px;" id="elqz3ltvqcctj" class="animable"></path><rect x="337.4" y="288.4" width="122.69" height="95.29" style="fill: rgb(111, 68, 57); transform-origin: 398.745px 336.045px;" id="elsiodiem7zf" class="animable"></rect><path d="M453,331.4s0-.21,0-.61,0-1,0-1.78c0-1.57,0-3.87,0-6.85,0-6,0-14.62-.08-25.49l.14.14-108.71.07h0l.21-.21c0,12.07,0,23.78,0,34.73l-.2-.2,77.78.09,22.71.06,6.09,0,1.59,0h-1.54l-6.05,0-22.66.05-77.92.1H344v-.2c0-10.95,0-22.66,0-34.73v-.2h.22l108.71.07h.14v.13c0,10.9-.06,19.59-.07,25.57,0,3,0,5.26,0,6.82,0,.77,0,1.35,0,1.75S453,331.4,453,331.4Z" style="fill: rgb(38, 50, 56); transform-origin: 398.535px 313.935px;" id="elb2ep7lzbt3" class="animable"></path><path d="M453,372.58s0-.21,0-.61,0-1,0-1.78c0-1.57,0-3.87,0-6.84,0-6,0-14.63-.08-25.49l.14.13-108.71.07h0l.21-.2c0,12.07,0,23.77,0,34.72l-.2-.2,77.78.1,22.71,0,6.09,0h1.61l-1.56,0-6.05,0-22.66.06-77.92.09H344v-.2c0-10.95,0-22.65,0-34.72v-.21h.22l108.71.07h.14v.14c0,10.9-.06,19.59-.07,25.57,0,3,0,5.25,0,6.81,0,.77,0,1.35,0,1.76S453,372.58,453,372.58Z" style="fill: rgb(38, 50, 56); transform-origin: 398.535px 355.065px;" id="elpw6m1o9x73a" class="animable"></path><polygon points="376.32 296.47 379.86 300.05 420.34 300.05 424.37 296.47 376.32 296.47" style="fill: rgb(38, 50, 56); transform-origin: 400.345px 298.26px;" id="elkl5w9boymv" class="animable"></polygon><polygon points="376.48 337.65 380.01 341.23 420.49 341.23 424.52 337.65 376.48 337.65" style="fill: rgb(38, 50, 56); transform-origin: 400.5px 339.44px;" id="elo7rwlq77nv" class="animable"></polygon></g><g id="freepik--Picture--inject-63" class="animable" style="transform-origin: 97.84px 106.22px;"><rect x="48.39" y="39.96" width="98.89" height="132.51" style="fill: rgb(69, 90, 100); transform-origin: 97.835px 106.215px;" id="el6eva2zoj0eu" class="animable"></rect><path d="M147.28,40a1.83,1.83,0,0,1-.27.36l-.85,1c-.79.91-1.91,2.17-3.34,3.8l0,0h-.06c-8.59.09-25.49.15-44.88.15S61.55,45.25,53,45.16h-.06l0,0-3.34-3.8-.85-1a4.37,4.37,0,0,1-.27-.36,3.27,3.27,0,0,1,.33.31l.9.94c.82.88,2,2.12,3.44,3.7l-.11,0c8.6-.09,25.49-.15,44.89-.15s36.29.06,44.88.15l-.1,0,3.44-3.7.9-.94A2.75,2.75,0,0,1,147.28,40Z" style="fill: rgb(38, 50, 56); transform-origin: 97.88px 42.655px;" id="el5gnwllwh44x" class="animable"></path><path d="M48.39,172.48l.27-.36.85-1q1.2-1.35,3.34-3.8l0,0H53c8.6-.1,25.49-.16,44.89-.16s36.29.06,44.88.16h.06l0,0,3.34,3.8.85,1a1.83,1.83,0,0,1,.27.36,2.12,2.12,0,0,1-.32-.3l-.9-1-3.44-3.7.1,0c-8.59.1-25.49.16-44.88.16s-36.29-.06-44.89-.16l.11,0-3.44,3.7-.9,1A2.43,2.43,0,0,1,48.39,172.48Z" style="fill: rgb(38, 50, 56); transform-origin: 97.84px 169.82px;" id="elappz2qdc3pd" class="animable"></path><rect x="52.95" y="45.01" width="89.77" height="122.42" style="fill: rgb(255, 255, 255); transform-origin: 97.835px 106.22px;" id="elpgbgdspcs3" class="animable"></rect><path d="M67,131.63c2.67-2.64,6.61-3.39,10.3-3.29s7.34.9,11,.86c5.89-.08,11.77-2.34,17.58-1.3,1.86.33,3.74,1,5.58.6,1.62-.36,3-1.5,4.55-2,4.1-1.27,8.7,2,12.64.32v27.32H67Z" style="fill: rgb(255, 150, 91); transform-origin: 97.825px 140.17px;" id="elkx84hwhu3k" class="animable"></path><path d="M68.24,132.73c-.15,0-.28-16.19-.28-36.15s.13-36.15.28-36.15.29,16.18.29,36.15S68.4,132.73,68.24,132.73Z" style="fill: rgb(38, 50, 56); transform-origin: 68.245px 96.58px;" id="elsfefinvibr" class="animable"></path><path d="M71.05,132.73c-.16,0-.29-16.19-.29-36.15s.13-36.15.29-36.15.29,16.18.29,36.15S71.21,132.73,71.05,132.73Z" style="fill: rgb(38, 50, 56); transform-origin: 71.05px 96.58px;" id="ele5t1n7jlix" class="animable"></path><path d="M73.86,132.73c-.16,0-.29-16.19-.29-36.15s.13-36.15.29-36.15.29,16.18.29,36.15S74,132.73,73.86,132.73Z" style="fill: rgb(38, 50, 56); transform-origin: 73.86px 96.58px;" id="el7bpmsnq2c63" class="animable"></path><path d="M76.67,132.73c-.16,0-.29-16.19-.29-36.15s.13-36.15.29-36.15S77,76.61,77,96.58,76.83,132.73,76.67,132.73Z" style="fill: rgb(38, 50, 56); transform-origin: 76.69px 96.58px;" id="el6cgbu2ccezo" class="animable"></path><path d="M79.48,132.73c-.16,0-.29-16.19-.29-36.15s.13-36.15.29-36.15.28,16.18.28,36.15S79.63,132.73,79.48,132.73Z" style="fill: rgb(38, 50, 56); transform-origin: 79.475px 96.58px;" id="eltnuovb0fesd" class="animable"></path><path d="M82.28,132.73c-.16,0-.28-16.19-.28-36.15s.12-36.15.28-36.15.29,16.18.29,36.15S82.44,132.73,82.28,132.73Z" style="fill: rgb(38, 50, 56); transform-origin: 82.285px 96.58px;" id="el8u6z2ahfmz5" class="animable"></path><path d="M85.09,132.73c-.16,0-.29-16.19-.29-36.15s.13-36.15.29-36.15.29,16.18.29,36.15S85.25,132.73,85.09,132.73Z" style="fill: rgb(38, 50, 56); transform-origin: 85.09px 96.58px;" id="el85mr6eau0nt" class="animable"></path><path d="M87.9,132.73c-.16,0-.29-16.19-.29-36.15s.13-36.15.29-36.15.29,16.18.29,36.15S88.06,132.73,87.9,132.73Z" style="fill: rgb(38, 50, 56); transform-origin: 87.9px 96.58px;" id="elf6djqny75ma" class="animable"></path><path d="M90.71,132.73c-.16,0-.29-16.19-.29-36.15s.13-36.15.29-36.15S91,76.61,91,96.58,90.87,132.73,90.71,132.73Z" style="fill: rgb(38, 50, 56); transform-origin: 90.71px 96.58px;" id="elec9z3ifwfjf" class="animable"></path><path d="M93.51,132.73c-.15,0-.28-16.19-.28-36.15s.13-36.15.28-36.15.29,16.18.29,36.15S93.67,132.73,93.51,132.73Z" style="fill: rgb(38, 50, 56); transform-origin: 93.515px 96.58px;" id="el6lrrze71vb9" class="animable"></path><path d="M96.32,132.73c-.16,0-.28-16.19-.28-36.15s.12-36.15.28-36.15.29,16.18.29,36.15S96.48,132.73,96.32,132.73Z" style="fill: rgb(38, 50, 56); transform-origin: 96.325px 96.58px;" id="elu244vr7l6i" class="animable"></path><path d="M99.13,132.73c-.16,0-.29-16.19-.29-36.15s.13-36.15.29-36.15.29,16.18.29,36.15S99.29,132.73,99.13,132.73Z" style="fill: rgb(38, 50, 56); transform-origin: 99.13px 96.58px;" id="el02vieds48pg5" class="animable"></path><path d="M101.94,132.73c-.16,0-.29-16.19-.29-36.15s.13-36.15.29-36.15.29,16.18.29,36.15S102.1,132.73,101.94,132.73Z" style="fill: rgb(38, 50, 56); transform-origin: 101.94px 96.58px;" id="el6p10wwozsq" class="animable"></path><path d="M104.75,132.73c-.16,0-.29-16.19-.29-36.15s.13-36.15.29-36.15.28,16.18.28,36.15S104.9,132.73,104.75,132.73Z" style="fill: rgb(38, 50, 56); transform-origin: 104.745px 96.58px;" id="elludbeejuqyc" class="animable"></path><path d="M107.55,132.73c-.15,0-.28-16.19-.28-36.15s.13-36.15.28-36.15.29,16.18.29,36.15S107.71,132.73,107.55,132.73Z" style="fill: rgb(38, 50, 56); transform-origin: 107.555px 96.58px;" id="elq6snq1mrti" class="animable"></path><path d="M110.36,132.73c-.16,0-.28-16.19-.28-36.15s.12-36.15.28-36.15.29,16.18.29,36.15S110.52,132.73,110.36,132.73Z" style="fill: rgb(38, 50, 56); transform-origin: 110.365px 96.58px;" id="elv2konev2o5" class="animable"></path><path d="M113.17,132.73c-.16,0-.29-16.19-.29-36.15s.13-36.15.29-36.15.29,16.18.29,36.15S113.33,132.73,113.17,132.73Z" style="fill: rgb(38, 50, 56); transform-origin: 113.17px 96.58px;" id="ellr3phbgyenk" class="animable"></path><path d="M116,132.73c-.16,0-.29-16.19-.29-36.15s.13-36.15.29-36.15.28,16.18.28,36.15S116.14,132.73,116,132.73Z" style="fill: rgb(38, 50, 56); transform-origin: 115.995px 96.58px;" id="elz7ie3q6fn3" class="animable"></path><path d="M118.79,132.73c-.16,0-.29-16.19-.29-36.15s.13-36.15.29-36.15.28,16.18.28,36.15S118.94,132.73,118.79,132.73Z" style="fill: rgb(38, 50, 56); transform-origin: 118.785px 96.58px;" id="eljngt3wcu7ds" class="animable"></path><path d="M121.59,132.73c-.15,0-.28-16.19-.28-36.15s.13-36.15.28-36.15.29,16.18.29,36.15S121.75,132.73,121.59,132.73Z" style="fill: rgb(38, 50, 56); transform-origin: 121.595px 96.58px;" id="elnwxvu0y8eag" class="animable"></path><path d="M124.4,132.73c-.16,0-.28-16.19-.28-36.15s.12-36.15.28-36.15.29,16.18.29,36.15S124.56,132.73,124.4,132.73Z" style="fill: rgb(38, 50, 56); transform-origin: 124.405px 96.58px;" id="elnw7732dbbnf" class="animable"></path><path d="M127.21,132.73c-.16,0-.29-16.19-.29-36.15s.13-36.15.29-36.15.29,16.18.29,36.15S127.37,132.73,127.21,132.73Z" style="fill: rgb(38, 50, 56); transform-origin: 127.21px 96.58px;" id="elhih9hm9z6bc" class="animable"></path></g><g id="freepik--Character--inject-63" class="animable" style="transform-origin: 246.994px 293.461px;"><path d="M298.25,243.11a289.74,289.74,0,0,1-7.37-29.42,228.6,228.6,0,0,0-4.64-30,52.16,52.16,0,0,0-4.4-20.45c-3-6.54-5.68-13.74-11.95-17.29-4.57-2.58-10.49-5-15.74-5.23-10.66-.44-20.23,1.39-28.63,8C214.21,157.6,213,173.44,209.85,187a53.32,53.32,0,0,0-1.07,18.37c.16,1.34.36,2.57.61,3.71L203,210.18l-4.55,63.51,103.42,6.53s13.32-.72,19.7-9.25C321.53,271,305.32,265.56,298.25,243.11Z" style="fill: rgb(38, 50, 56); transform-origin: 260.01px 210.439px;" id="el8ket729256b" class="animable"></path><path d="M212.38,354.83s-17.77,18.47-21.67,44.45L250.31,437l60-39.5s-4.76-24.1-19.72-42.62Z" style="fill: rgb(38, 50, 56); transform-origin: 250.51px 395.915px;" id="elh8wi8jo594l" class="animable"></path><path d="M232,454.24c.88-.06,50.34,0,50.34,0l30.9,2.09c10.78.33,13.89-5,13.64-8.53-.33-4.49-4.88-9.58-4.88-9.58s-25.37-5.44-26-5-61.64,5.07-61.64,5.07Z" style="fill: rgb(174, 116, 97); transform-origin: 279.447px 444.77px;" id="el7uk0b3xlim7" class="animable"></path><path d="M300.19,387.19c.45.95,49.75,14.52,49.75,14.52L249.77,437.28s-14.37-17.56-13.92-17.56S300.19,387.19,300.19,387.19Z" style="fill: rgb(38, 50, 56); transform-origin: 292.89px 412.235px;" id="elx77gslwnfwc" class="animable"></path><path d="M256.36,423.07v31.56s63.8,1.49,84.92-3.2,33.28-27.64,25.7-39.51c-8.88-13.94-30.65-12.49-37.81-11.71S256.36,423.07,256.36,423.07Z" style="fill: rgb(38, 50, 56); transform-origin: 312.803px 427.301px;" id="elbrthm54zh98" class="animable"></path><path d="M207.13,390.31s-62.28,2.89-71.5,8.51l102.23,34.31s14.37-17.56,13.92-17.56S207.13,390.31,207.13,390.31Z" style="fill: rgb(38, 50, 56); transform-origin: 193.71px 411.72px;" id="elyboevuy2ld" class="animable"></path><path d="M246.65,435.07s-68.44-28.43-76.24-31.52c-17.66-7-44.51-12.91-45.64,11.93s31.32,39.7,54,41.25l62.38,0Z" style="fill: rgb(38, 50, 56); transform-origin: 185.696px 427.097px;" id="elqfi7v5rrxba" class="animable"></path><path d="M256.36,418.42l-19,1.75s-3.38-4.62-6.29-5.74-8.29,0-11.83-1.43-12.56-8.64-16-11a21.66,21.66,0,0,0-10.13-3.59s-8-1.6-12.86,3c-2.23,2.09-2.45,6.85-2.45,6.85s56.19,29.95,56.81,29.63,21.74,4,21.74,4Z" style="fill: rgb(174, 116, 97); transform-origin: 217.08px 420.015px;" id="elpvv0bl7oyi" class="animable"></path><path d="M234.62,437.85a4.18,4.18,0,0,1-.83-.36c-.6-.28-1.37-.66-2.33-1.13l-8.52-4.27-12.6-6.42c-4.73-2.45-10-5-15.36-8s-10.51-5.8-15.28-8.14A113.43,113.43,0,0,0,166.77,404a74.81,74.81,0,0,0-9.11-2.53c-1.09-.24-1.95-.36-2.53-.48a3.5,3.5,0,0,1-.87-.21,4.57,4.57,0,0,1,.89.07c.59.08,1.45.16,2.56.36a65,65,0,0,1,9.2,2.34A106,106,0,0,1,180,409c4.8,2.33,9.93,5.16,15.32,8.11s10.62,5.56,15.33,8l12.53,6.55,8.43,4.47,2.27,1.24A4.48,4.48,0,0,1,234.62,437.85Z" style="fill: rgb(69, 90, 100); transform-origin: 194.44px 419.315px;" id="el1d3a5z6kcd4h" class="animable"></path><path d="M256.36,441.83c0,.19-4.87-.55-10.8-1.66s-10.72-2.14-10.68-2.32,4.86.56,10.8,1.66S256.39,441.65,256.36,441.83Z" style="fill: rgb(111, 68, 57); transform-origin: 245.62px 439.841px;" id="el9xzbgpido2a" class="animable"></path><path d="M256.36,447.8a2.7,2.7,0,0,1-.05-.59c0-.44,0-1,0-1.71,0-1.57,0-3.74-.09-6.47,0-5.61-.07-13.48-.11-22.79V416l.25-.05,22.54-4.54,37.09-7.3L327.19,402l3.06-.55a5.19,5.19,0,0,1,1.08-.14,8.42,8.42,0,0,1-1.05.28l-3,.67L316,404.57l-37,7.5-22.55,4.47.24-.3c-.05,9.31-.09,17.18-.12,22.79,0,2.73-.07,4.9-.09,6.47,0,.7,0,1.27,0,1.71A2.7,2.7,0,0,1,256.36,447.8Z" style="fill: rgb(69, 90, 100); transform-origin: 293.72px 424.555px;" id="elo8kgu39r8i" class="animable"></path><path d="M231.1,410.53c-.09.09-1.65-1.52-4.41-3.82A65.12,65.12,0,0,0,215.06,399a63.41,63.41,0,0,0-13-4.86c-3.44-.87-5.63-1.16-5.61-1.28a6.38,6.38,0,0,1,1.54.1,41.72,41.72,0,0,1,4.17.71,55.81,55.81,0,0,1,13.15,4.72A57,57,0,0,1,227,406.34a40.45,40.45,0,0,1,3.09,3A7.69,7.69,0,0,1,231.1,410.53Z" style="fill: rgb(69, 90, 100); transform-origin: 213.775px 401.692px;" id="el303h09n3uin" class="animable"></path><path d="M316.28,392.25a11.58,11.58,0,0,1-1.65.08,35.59,35.59,0,0,0-4.47.62,86,86,0,0,0-14.33,4.22,77.1,77.1,0,0,0-13.44,6.62c-3.25,2.07-5,3.72-5.1,3.61a9.11,9.11,0,0,1,1.2-1.19,15.29,15.29,0,0,1,1.53-1.28c.62-.45,1.3-1,2.12-1.55a68,68,0,0,1,13.46-6.85,74.45,74.45,0,0,1,14.48-4.06,29,29,0,0,1,4.54-.41A5.77,5.77,0,0,1,316.28,392.25Z" style="fill: rgb(69, 90, 100); transform-origin: 296.785px 399.731px;" id="elmx778l9l8om" class="animable"></path><path d="M226.49,243.54s5.43,21.42,26.13,19.16c15-1.64,13-19.75,13-19.75Z" style="fill: rgb(174, 116, 97); transform-origin: 246.099px 252.909px;" id="el5xcadaoc2eu" class="animable"></path><path d="M198.72,253.36c-.22,1.14,2.76,48.12,2.76,48.12l4.44,22,7,20.73-10,22.5c31.59,11.53,67.78,14.16,95.69.14l-8.87-24s4.49-34,5.37-47.45S283.76,248,283.76,248l-18.09-4.46H226.81Z" style="fill: rgb(255, 150, 91); transform-origin: 248.659px 309.965px;" id="elxaaxvgzy1dc" class="animable"></path><path d="M152.53,354.2s-15.63-5.29-10.78-18.76,22.64-38.5,27.92-47.64,12.57-28,25-32.93,15.19-4.08,15.19-4.08,7.62,32.32-7.5,50l-3.18-1-27,32,42.37,10.61-1.81,20Z" style="fill: rgb(174, 116, 97); transform-origin: 177.683px 306.567px;" id="el8ris0gp2228" class="animable"></path><path d="M281.94,276.58s-6.42-11.28-7.29-14-2.62-9.67-4-10.28-2.52,1.82-3,4.44,3.21,8.26,2,9.17-22.16-5-25.65-5.95-13.32-2.82-13.61,1.92c0,0-4.76-.2-5.05,1.81a6.6,6.6,0,0,0,0,2.82s-.87,3.63,2.14,4.84a24.42,24.42,0,0,0,5.15,1.51s-2.43,1.21-.29,3.73,15.35,7.66,15.35,7.66,6,5.85,11.27,7.16,14.18,1.31,14.18,1.31Z" style="fill: rgb(174, 116, 97); transform-origin: 253.564px 272.463px;" id="eliaucz5hl6ej" class="animable"></path><path d="M283.76,248,297,252.2s8.8,2.09,14.36,8.21,11.8,19.76,17,23.26,21.91,18.71,23.26,25.18,1,22.38-7.92,23.26c0,0-47.09-49.33-47.62-49.14s-5,7.08-5,7.08-5.17-12.77-7.53-19.59S283.76,248,283.76,248Z" style="fill: rgb(174, 116, 97); transform-origin: 317.38px 290.055px;" id="elb0cfqlc77sb" class="animable"></path><path d="M281.94,276.58s24.88,14.33,35.16,16.13,20.06,2.15,24.78,7.22,1.86,32.18,1.86,32.18-5.4,2.27-16.52-2.8-54.13-36.6-54.13-36.6Z" style="fill: rgb(174, 116, 97); transform-origin: 308.844px 304.598px;" id="elpluczag34d" class="animable"></path><path d="M213.87,343.49s5.31-5.05,10.53-6.85,8.28-4.36,10.86-5.53c3.14-1.42,6.66-2.2,5.78,1.9-.5,2.33-3.22,4-6.06,5.95s-5.81,2.54-3.65,3.16,12.71,2.8,18,2.51c0,0,12.38-.06,12.52,3.12s-13.78,2.16-15.95,2.5a26.14,26.14,0,0,0-3.69.85s14.43,1.14,18.54,2,3.79,3.41,2.23,4.15a22.75,22.75,0,0,1-2.44,1s1.17,2.21-1.11,3-21.41.15-21.41.15,13.28,1.25,14.22,2.31a2,2,0,0,1-1.24,3.11c-1.46.27-14.82-.75-15.55-.56a31.45,31.45,0,0,1-14.26-1c-7.36-2.18-9.22-4.42-9.22-4.42Z" style="fill: rgb(174, 116, 97); transform-origin: 238.012px 348.417px;" id="eliu5lz79ouzg" class="animable"></path><path d="M340.24,298.48a2.76,2.76,0,0,1-.6-.24l-1.65-.8a55.39,55.39,0,0,0-6.21-2.58,37.48,37.48,0,0,0-9.71-2c-3.71-.34-8-.29-12.13-1.87a102.61,102.61,0,0,1-11.2-5c-3.37-1.7-6.36-3.32-8.85-4.7s-4.49-2.54-5.86-3.35l-1.57-.95a2.76,2.76,0,0,1-.52-.37,4.32,4.32,0,0,1,.58.28l1.61.86,5.94,3.21c2.51,1.34,5.51,2.91,8.88,4.59a107.57,107.57,0,0,0,11.17,5c4,1.55,8.25,1.52,12,1.88a36.86,36.86,0,0,1,9.8,2.16,49.45,49.45,0,0,1,6.17,2.75l1.61.88A4.36,4.36,0,0,1,340.24,298.48Z" style="fill: rgb(111, 68, 57); transform-origin: 311.09px 287.55px;" id="elbk4oqui272e" class="animable"></path><path d="M253.9,265.81a30.17,30.17,0,0,1-3.45-.83c-2.12-.54-5.06-1.21-8.35-1.75s-6.3-.85-8.48-1a31.18,31.18,0,0,1-3.54-.32,3.75,3.75,0,0,1,1-.07c.61,0,1.5,0,2.6,0a69.3,69.3,0,0,1,16.91,2.79c1,.31,1.9.59,2.48.8A3.71,3.71,0,0,1,253.9,265.81Z" style="fill: rgb(111, 68, 57); transform-origin: 241.99px 263.821px;" id="elx9bytk5i6a" class="animable"></path><path d="M256.08,271.46c0,.14-7-1-15.5-2.66s-15.43-3-15.4-3.17,7,1.05,15.5,2.66S256.1,271.32,256.08,271.46Z" style="fill: rgb(111, 68, 57); transform-origin: 240.63px 268.543px;" id="elmlx9rcucm6" class="animable"></path><path d="M251.15,276.35a17.77,17.77,0,0,1-2.78-.56c-1.71-.39-4.07-.92-6.68-1.45s-5-1-6.72-1.26a18.85,18.85,0,0,1-2.78-.57,13.23,13.23,0,0,1,2.84.21c1.74.21,4.14.58,6.76,1.11s5,1.12,6.67,1.61A13.6,13.6,0,0,1,251.15,276.35Z" style="fill: rgb(111, 68, 57); transform-origin: 241.67px 274.426px;" id="el92zt6r11ww" class="animable"></path><path d="M241.27,356.68a87.63,87.63,0,0,1,9.55.62,88.87,88.87,0,0,1,9.51,1.13,87.63,87.63,0,0,1-9.55-.62A89.3,89.3,0,0,1,241.27,356.68Z" style="fill: rgb(111, 68, 57); transform-origin: 250.8px 357.555px;" id="eljqci0org52j" class="animable"></path><path d="M173.63,331.53a73.23,73.23,0,0,0-8,1.5,73.83,73.83,0,0,0-7.64,2.88,8.59,8.59,0,0,1,2.05-1.27,30.22,30.22,0,0,1,5.45-2.11,30.54,30.54,0,0,1,5.74-1A8.45,8.45,0,0,1,173.63,331.53Z" style="fill: rgb(111, 68, 57); transform-origin: 165.81px 333.677px;" id="eln6tkypbgua7" class="animable"></path><path d="M190.24,284.06a11.84,11.84,0,0,1,1.63,2.1c.94,1.35,2.17,3.26,3.41,5.44s2.25,4.22,2.93,5.72a13,13,0,0,1,1,2.47,13.38,13.38,0,0,1-1.3-2.31c-.76-1.45-1.82-3.45-3-5.62s-2.41-4.1-3.27-5.5A15.81,15.81,0,0,1,190.24,284.06Z" style="fill: rgb(111, 68, 57); transform-origin: 194.725px 291.925px;" id="elvsoak8dm5xh" class="animable"></path><polygon points="245.89 334.27 247.47 309.61 243.42 309.61 250.78 296.91 258.88 309.42 254.46 309.42 256.05 334.11 245.89 334.27" style="fill: rgb(224, 224, 224); transform-origin: 251.15px 315.59px;" id="el8u64z0nhbv" class="animable"></polygon><path d="M237.6,136.7a10.49,10.49,0,0,0-5.38-4.73,19.25,19.25,0,0,0-16.16,0,17.07,17.07,0,0,0-9.47,12.91,15.34,15.34,0,0,0,6.48,14.47,18.23,18.23,0,0,0-8.46,2.39,3.32,3.32,0,0,0-1.75,1.86c-.33,1.35,1.09,2.61,2.47,2.67a5.64,5.64,0,0,0,2.93-.84A4.19,4.19,0,0,0,206.1,168c-.42,2,1.65,3.76,3.66,3.84s3.88-1,5.61-2l20.94-26.48C238.28,141.88,238.64,138.9,237.6,136.7Z" style="fill: rgb(38, 50, 56); transform-origin: 220.49px 151.018px;" id="elru0h39oilel" class="animable"></path><path d="M226.11,159.54l34.44-10.16c11.1-1.62,19,11.81,20.19,23,1.27,12.39,2.33,27.57,1.23,36.9-2.23,18.76-16.42,21.69-16.42,21.69s0,.28.08,5.82l0,11.41c.15,3.63-.49,4.85-2.71,7.73-5.08,6.58-14.34,7.46-25.26,3.42-6.33-2.34-10.73-7.05-11.21-13.46l.06-75.92C226.35,166.53,222.74,160,226.11,159.54Z" style="fill: rgb(174, 116, 97); transform-origin: 253.553px 205.516px;" id="elsn9z31zvoa" class="animable"></path><path d="M268.78,189.34c.31-.31,2.09,1.07,4.66,1.12s4.49-1.2,4.76-.88c.14.14-.18.7-1,1.28a6.57,6.57,0,0,1-3.82,1.09,6.29,6.29,0,0,1-3.7-1.28C268.89,190,268.63,189.47,268.78,189.34Z" style="fill: rgb(38, 50, 56); transform-origin: 273.486px 190.624px;" id="el9f87pwzc1kb" class="animable"></path><path d="M245.94,190c.28-.32,2.15.95,4.72.84s4.41-1.47,4.7-1.16c.14.13-.14.7-.94,1.34a6.55,6.55,0,0,1-3.74,1.31,6.3,6.3,0,0,1-3.78-1C246.09,190.72,245.8,190.17,245.94,190Z" style="fill: rgb(38, 50, 56); transform-origin: 250.65px 190.987px;" id="el9p6cyljh8pu" class="animable"></path><path d="M263.18,200.56c0-.14,1.57-.48,4.14-.92.66-.09,1.27-.25,1.37-.7a3.39,3.39,0,0,0-.52-1.93L266,192.09c-3-7-5.16-12.8-4.87-12.91s2.92,5.47,5.9,12.48c.72,1.74,1.41,3.38,2.06,5a3.79,3.79,0,0,1,.44,2.57,1.63,1.63,0,0,1-1,1,4.22,4.22,0,0,1-1.11.2C264.81,200.63,263.19,200.71,263.18,200.56Z" style="fill: rgb(38, 50, 56); transform-origin: 265.348px 189.908px;" id="elrx34wyijw2" class="animable"></path><path d="M265.62,230.93a47.45,47.45,0,0,1-25.22-5.68s6.68,12.8,25.27,10.33Z" style="fill: rgb(111, 68, 57); transform-origin: 253.035px 230.573px;" id="el22i57q5ulda" class="animable"></path><path d="M259,212.43a3.65,3.65,0,0,1-3.9-1.26,3.56,3.56,0,0,1,2.81-5.66,3.12,3.12,0,0,1,3.41,2.54C262,211.69,259,212.43,259,212.43Z" style="fill: rgb(111, 68, 57); transform-origin: 257.917px 209.034px;" id="elznw151hscl" class="animable"></path><path d="M254.13,174.47c-.19.72-2.78.64-5.75,1.29s-5.32,1.71-5.78,1.13c-.21-.28.15-1,1.07-1.75a10.18,10.18,0,0,1,8.78-1.84C253.6,173.63,254.21,174.13,254.13,174.47Z" style="fill: rgb(38, 50, 56); transform-origin: 248.339px 175.021px;" id="elcirpmw5cga" class="animable"></path><path d="M278.25,176.66c-.59.5-2.46-.38-4.82-.75s-4.41-.24-4.78-.91c-.16-.33.24-.86,1.19-1.28a7.34,7.34,0,0,1,4.06-.38,7.15,7.15,0,0,1,3.67,1.72C278.32,175.77,278.51,176.41,278.25,176.66Z" style="fill: rgb(38, 50, 56); transform-origin: 273.488px 175.01px;" id="el4yx4u7h73z" class="animable"></path><path d="M260.67,147.37l.09.4-.07,0Z" style="fill: rgb(38, 50, 56); transform-origin: 260.715px 147.57px;" id="ellfwihmb1ae" class="animable"></path><path d="M225.24,243.63c9.31-.54,10.59-13.49,10-18.38a113.2,113.2,0,0,0-3.14-16.11c-2.2-8,.82-16.61,1.93-24.93a19.75,19.75,0,0,0,12.12-7c3.74-4.36,6-9.76,8.21-15.07a25.23,25.23,0,0,1-5.08,14.49,6.77,6.77,0,0,0,5.81-1.88,15.13,15.13,0,0,0,3.41-5.3,41.34,41.34,0,0,0,3.31-14.91,53.72,53.72,0,0,1-2.44,21.77,9.27,9.27,0,0,1,4.05.16c1.35.19,2.9.15,3.86-.82a4.8,4.8,0,0,0,1.05-2.49,55.71,55.71,0,0,0,.62-19,57,57,0,0,1,4.28,10.51,20.47,20.47,0,0,1,.08,11.22,1.64,1.64,0,0,0,2.31,0,4,4,0,0,0,1-2.34c.49-3.14-.06-6.33-.62-9.45,1.87,3.31,2.49,7.14,3.52,10.79s2.67,7.39,5.84,9.48a49.73,49.73,0,0,0-.46-14.31c-.63-3.91-2.49-7.79-4.2-11.36a33.7,33.7,0,0,0-7.56-10.52c-5.49-4.81-7.78-2.74-11.29-.9l-.42.17a2.6,2.6,0,0,0,0-.26l-.15-.74a52.59,52.59,0,0,0-27.71,1.29c-6.61,2.16-7.22,16.39-8.83,9.63-1-4.09-6.29-.36-6.35-.24-7.8,14.07-16.07,36.38-16.45,71.64h0Z" style="fill: rgb(38, 50, 56); transform-origin: 243.807px 194.404px;" id="elfbul7zclzze" class="animable"></path><path d="M218.47,156.59c1.11.52,4.26-4.31,9.9-8.11s11.18-5.16,11.08-6.39c0-.56-1.63-1-4.2-.74a21.51,21.51,0,0,0-16,11C218.1,154.7,218,156.35,218.47,156.59Z" style="fill: rgb(69, 90, 100); transform-origin: 228.829px 148.951px;" id="elbvx88ezo1b" class="animable"></path><path d="M261.13,207.62s-.09-.2-.28-.52a2.79,2.79,0,0,0-1.17-1,3.45,3.45,0,0,0-2.23-.28,2.69,2.69,0,0,0-2.15,1.49A4,4,0,0,0,255,210a2.85,2.85,0,0,0,1.34,1.75,14.33,14.33,0,0,0,2,.75s-.22.05-.61,0a4.24,4.24,0,0,1-1.62-.45,3.16,3.16,0,0,1-1.62-1.93,4.33,4.33,0,0,1,.28-3.08,2.85,2.85,0,0,1,1.1-1.25,4,4,0,0,1,3.92-.06A2.65,2.65,0,0,1,261,207C261.18,207.39,261.16,207.62,261.13,207.62Z" style="fill: rgb(38, 50, 56); transform-origin: 257.739px 208.884px;" id="el0628wm2pts7" class="animable"></path><path d="M275.26,214a2.18,2.18,0,0,1,1.45-2.26,2.83,2.83,0,0,1,2.43.05,3,3,0,0,1,5.22.38,4,4,0,0,1,4,.31,3,3,0,0,1,1,3.63c2,1,.59,3.84-1.49,3.17a2.67,2.67,0,0,1,.69,3.45,4.36,4.36,0,0,1-3.17,2,6.59,6.59,0,0,1-6.64-3.17,3.48,3.48,0,0,1-4.34-5.36,10,10,0,0,1-8.07-5.36,19.59,19.59,0,0,0,8.9,3.16" style="fill: rgb(255, 255, 255); transform-origin: 278.333px 217.622px;" id="el9z353pq64ac" class="animable"></path></g><defs>     <filter id="active" height="200%">         <feMorphology in="SourceAlpha" result="DILATED" operator="dilate" radius="2"></feMorphology>                <feFlood flood-color="#32DFEC" flood-opacity="1" result="PINK"></feFlood>        <feComposite in="PINK" in2="DILATED" operator="in" result="OUTLINE"></feComposite>        <feMerge>            <feMergeNode in="OUTLINE"></feMergeNode>            <feMergeNode in="SourceGraphic"></feMergeNode>        </feMerge>    </filter>    <filter id="hover" height="200%">        <feMorphology in="SourceAlpha" result="DILATED" operator="dilate" radius="2"></feMorphology>                <feFlood flood-color="#ff0000" flood-opacity="0.5" result="PINK"></feFlood>        <feComposite in="PINK" in2="DILATED" operator="in" result="OUTLINE"></feComposite>        <feMerge>            <feMergeNode in="OUTLINE"></feMergeNode>            <feMergeNode in="SourceGraphic"></feMergeNode>        </feMerge>            <feColorMatrix type="matrix" values="0   0   0   0   0                0   1   0   0   0                0   0   0   0   0                0   0   0   1   0 "></feColorMatrix>    </filter></defs></svg>